<?xml version="1.0" standalone="no"?>
<!DOCTYPE svg PUBLIC "-//W3C//DTD SVG 20010904//EN"
 "http://www.w3.org/TR/2001/REC-SVG-20010904/DTD/svg10.dtd">
<svg version="1.0" xmlns="http://www.w3.org/2000/svg"
 width="255.000000pt" height="255.000000pt" viewBox="0 0 255.000000 255.000000"
 preserveAspectRatio="xMidYMid meet">
<metadata>
Created by potrace 1.14, written by Peter Selinger 2001-2017
</metadata>
<g transform="translate(0.000000,255.000000) scale(0.100000,-0.100000)"
fill="#000000" stroke="none">
<path d="M1200 2525 c-74 -16 -358 -103 -384 -117 -12 -6 -25 -17 -31 -23 -5
-7 -32 -21 -59 -31 -55 -20 -72 -46 -62 -98 8 -43 10 -43 131 -17 50 10 106
22 125 25 l35 6 -3 -93 c-2 -50 3 -191 12 -312 9 -121 16 -237 16 -258 l0 -38
-115 -54 c-110 -52 -128 -66 -104 -81 7 -4 2 -16 -14 -33 -36 -38 -47 -65 -47
-113 0 -62 30 -104 93 -133 28 -14 62 -25 75 -25 13 0 25 -8 28 -17 28 -88 81
-151 158 -190 28 -14 75 -28 107 -30 l58 -6 3 -79 c3 -79 3 -80 -25 -95 -60
-31 -132 -178 -227 -466 -50 -150 -59 -197 -38 -197 9 0 21 -7 28 -15 9 -11
25 -14 64 -9 28 3 119 8 201 9 83 2 172 7 199 11 40 6 50 4 58 -10 9 -16 11
-16 28 -1 13 11 58 22 137 32 151 19 162 27 159 121 -2 49 -15 108 -52 220
-27 83 -54 152 -61 152 -6 0 -33 42 -60 92 -45 86 -53 95 -100 118 l-52 25 -6
73 c-10 98 -30 92 -30 -9 0 -73 -1 -75 -36 -107 -34 -29 -39 -31 -70 -21 -93
30 -89 25 -89 94 l0 63 44 6 c115 18 271 128 317 226 16 33 30 50 42 50 31 0
74 28 111 73 45 55 62 97 71 174 6 58 5 62 -18 77 -23 15 -24 23 -30 139 -4
67 -16 241 -27 387 -24 326 -24 307 0 315 11 3 20 12 20 20 0 7 10 15 23 17
14 2 22 10 22 22 0 17 -21 24 -165 54 -91 18 -209 41 -262 51 -54 9 -103 22
-110 29 -14 14 -15 14 -88 -3z m494 -328 c23 -462 28 -533 42 -561 8 -16 14
-40 14 -54 0 -21 -2 -23 -15 -12 -9 7 -39 21 -68 30 l-52 17 -12 89 c-6 49
-17 199 -24 334 -9 181 -16 248 -26 256 -29 25 -13 34 61 33 l74 -1 6 -131z
m-397 89 c-3 -8 -11 -61 -18 -117 -11 -86 -14 -99 -21 -74 -8 28 -1 181 9 198
8 13 35 7 30 -7z m-200 -153 c-3 -10 -5 -4 -5 12 0 17 2 24 5 18 2 -7 2 -21 0
-30z m220 -65 c-2 -13 -4 -5 -4 17 -1 22 1 32 4 23 2 -10 2 -28 0 -40z m-10
-90 c-2 -13 -4 -3 -4 22 0 25 2 35 4 23 2 -13 2 -33 0 -45z m-65 -105 l-10
-48 -1 60 c-1 43 2 56 10 48 8 -8 9 -25 1 -60z m-135 -185 c-3 -7 -5 -2 -5 12
0 14 2 19 5 13 2 -7 2 -19 0 -25z m163 -32 c0 -18 -22 -26 -73 -26 -39 1 -40
2 -23 15 14 11 24 12 39 3 16 -8 22 -7 29 6 11 20 28 21 28 2z m-150 -26 c0
-5 -4 -10 -10 -10 -5 0 -10 5 -10 10 0 6 5 10 10 10 6 0 10 -4 10 -10z m150
-59 c0 -5 -6 -14 -14 -20 -10 -8 -16 -8 -25 2 -6 8 -8 17 -4 20 9 10 43 8 43
-2z m239 -21 c31 -10 50 -19 44 -19 -21 -2 -15 -27 10 -44 18 -13 19 -16 5
-16 -10 -1 -26 9 -37 20 -18 19 -26 21 -87 14 -61 -6 -67 -5 -55 8 7 9 11 21
10 29 -5 43 -3 43 110 8z m139 -29 c23 -6 23 -6 -7 -17 -26 -10 -32 -9 -47 7
-16 18 -16 19 7 18 13 -1 34 -4 47 -8z m87 -1 c-3 -5 -11 -10 -16 -10 -6 0 -7
5 -4 10 3 6 11 10 16 10 6 0 7 -4 4 -10z m-519 -40 c12 5 24 13 27 17 11 17
76 2 83 -19 6 -21 42 -38 81 -38 l25 0 -33 -38 c-19 -21 -38 -46 -44 -56 -5
-9 -27 -19 -47 -23 l-36 -5 -8 48 c-4 30 -16 57 -31 72 -22 22 -31 24 -99 20
-41 -2 -74 -2 -74 0 0 2 24 14 53 27 50 22 53 22 67 5 11 -13 21 -16 36 -10z
m505 -33 c7 -46 25 -67 56 -67 21 0 23 -3 18 -22 -12 -39 -44 -85 -85 -122
-63 -56 -66 -52 -62 77 3 94 7 117 25 144 27 40 40 37 48 -10z m-793 -31 c3
-3 -4 -34 -16 -69 -11 -35 -24 -91 -28 -125 -4 -35 -11 -62 -18 -62 -26 1 -94
40 -114 65 -47 59 -13 152 68 193 32 15 48 18 72 11 17 -4 33 -11 36 -13z
m106 8 c3 -8 -4 -28 -16 -44 -28 -39 -35 -123 -15 -172 21 -51 64 -71 139 -66
32 2 58 1 58 -4 0 -4 5 -8 10 -8 6 0 10 9 10 19 0 11 10 28 23 38 14 11 26 34
30 57 7 45 4 41 40 50 25 6 27 4 27 -24 0 -16 -4 -30 -10 -30 -5 0 -10 -4 -10
-10 0 -5 7 -7 15 -4 8 4 15 2 15 -4 0 -22 53 -72 87 -81 47 -13 103 9 144 58
l31 36 -7 -35 c-11 -54 -55 -129 -100 -167 -22 -20 -73 -51 -114 -71 -175 -84
-366 -40 -442 102 -20 39 -22 49 -11 66 16 26 15 30 -3 30 -8 0 -15 8 -16 18
-5 84 23 192 52 199 12 3 19 12 17 22 -2 9 3 21 12 28 20 16 27 16 34 -3z
m537 -5 c4 -8 10 -21 13 -29 3 -8 11 -22 17 -30 20 -27 -8 -99 -56 -147 -52
-53 -92 -57 -136 -16 -36 34 -39 58 -6 46 87 -31 183 39 156 116 -12 34 -35
51 -68 51 -12 0 -21 5 -21 11 0 7 12 9 30 7 17 -3 33 -1 36 4 8 12 26 5 35
-13z m-348 -16 c2 -5 7 -26 10 -48 4 -22 4 -33 0 -25 -11 29 -36 50 -60 50
-41 0 -123 -32 -138 -53 -22 -32 -18 -7 5 30 21 35 36 41 115 46 28 2 53 4 57
5 4 1 9 -1 11 -5z m293 -31 c23 -15 25 -49 4 -73 l-21 -24 6 28 c4 21 0 33
-19 52 -25 25 -25 25 -3 25 12 0 27 -4 33 -8z m-79 -20 c-23 -26 -21 -58 5
-76 26 -19 10 -21 -27 -4 -17 8 -25 19 -25 36 0 29 26 62 48 62 13 0 13 -3 -1
-18z m-237 -23 c14 -25 -7 -63 -39 -72 -19 -5 -19 -4 -4 20 11 17 13 27 5 35
-7 7 -7 14 1 24 17 19 25 17 37 -7z m-80 1 c0 -5 -4 -10 -9 -10 -15 0 -21 -30
-11 -51 10 -17 9 -18 -14 -8 -41 19 -42 44 -1 67 25 14 35 15 35 2z m110 -105
c-17 -32 -63 -55 -110 -55 -51 0 -100 42 -100 86 l0 28 15 -21 c21 -30 87 -48
128 -34 41 15 67 39 69 65 0 12 3 6 5 -13 3 -19 -1 -44 -7 -56z m229 -581
c-17 -21 -46 -17 -63 8 -23 32 -20 39 27 74 l42 31 3 -49 c2 -28 -2 -56 -9
-64z m-132 71 l31 0 -55 -50 c-80 -72 -83 -73 -83 -30 0 20 7 49 16 66 12 25
19 29 37 22 12 -4 36 -8 54 -8z m267 -133 c20 -46 36 -85 36 -87 0 -3 -10 -5
-23 -5 -12 0 -28 -9 -35 -20 -7 -11 -19 -20 -27 -20 -12 0 -15 14 -15 69 0 85
10 165 20 154 4 -4 24 -45 44 -91z m-103 -154 c-7 -112 -15 -219 -18 -238 -3
-19 -5 -47 -4 -62 2 -19 -2 -28 -12 -28 -11 0 -14 17 -14 72 0 130 -22 287
-44 309 -10 10 -19 23 -19 27 0 5 -10 13 -21 18 -19 9 -20 12 -7 25 9 8 18 24
22 36 6 18 13 20 44 16 29 -4 41 0 56 16 11 12 21 19 24 16 3 -2 0 -96 -7
-207z m-348 -80 c-39 -41 -63 -37 -63 10 0 53 26 156 52 205 l22 42 8 -114 8
-115 -27 -28z m137 102 c-10 -30 -22 -77 -26 -105 -4 -27 -15 -68 -24 -90
l-17 -40 -6 60 c-3 33 -6 112 -5 175 l0 116 37 15 36 15 12 -46 c10 -38 9 -53
-7 -100z m287 -62 c31 -35 43 -63 43 -104 0 -29 -7 -43 -36 -70 -59 -56 -68
-48 -61 49 4 45 7 97 7 115 0 38 18 42 47 10z m-385 -195 c3 -57 2 -58 -24
-61 -25 -3 -28 0 -28 24 0 15 8 52 17 81 20 64 30 51 35 -44z m-75 65 c-3 -8
-6 -5 -6 6 -1 11 2 17 5 13 3 -3 4 -12 1 -19z m163 -111 c0 -16 -4 -26 -10
-22 -5 3 -10 23 -10 43 0 28 3 33 10 22 5 -8 10 -28 10 -43z m-273 11 c-3 -8
-6 -5 -6 6 -1 11 2 17 5 13 3 -3 4 -12 1 -19z m320 -35 c-3 -10 -5 -4 -5 12 0
17 2 24 5 18 2 -7 2 -21 0 -30z m-330 -15 c-3 -7 -5 -2 -5 12 0 14 2 19 5 13
2 -7 2 -19 0 -25z"/>
<path d="M1330 1180 c0 -5 5 -10 11 -10 5 0 7 5 4 10 -3 6 -8 10 -11 10 -2 0
-4 -4 -4 -10z"/>
<path d="M1260 1170 c0 -5 7 -10 16 -10 8 0 12 5 9 10 -3 6 -10 10 -16 10 -5
0 -9 -4 -9 -10z"/>
<path d="M1145 1110 c3 -5 8 -10 11 -10 2 0 4 5 4 10 0 6 -5 10 -11 10 -5 0
-7 -4 -4 -10z"/>
<path d="M1273 1090 c-33 -13 -31 -50 2 -50 37 0 97 28 93 42 -5 16 -65 21
-95 8z m24 -26 c-3 -3 -12 -4 -19 -1 -8 3 -5 6 6 6 11 1 17 -2 13 -5z"/>
<path d="M1345 1041 c-3 -5 -1 -12 5 -16 5 -3 10 1 10 9 0 18 -6 21 -15 7z"/>
<path d="M1265 1020 c-3 -5 -1 -10 4 -10 6 0 11 5 11 10 0 6 -2 10 -4 10 -3 0
-8 -4 -11 -10z"/>
<path d="M1206 1011 c-4 -7 -5 -15 -2 -18 9 -9 19 4 14 18 -4 11 -6 11 -12 0z"/>
</g>
</svg>
